<?xml version="1.0" encoding="UTF-8" standalone="no"?>
<svg width="1440px" height="500px" viewBox="0 0 1440 500" version="1.1" xmlns="http://www.w3.org/2000/svg" xmlns:xlink="http://www.w3.org/1999/xlink">
    <defs>
        <filter x="-50%" y="-50%" width="200%" height="200%" filterUnits="objectBoundingBox" id="filter-1">
            <feOffset dx="0" dy="-2" in="SourceAlpha" result="shadowOffsetOuter1"></feOffset>
            <feGaussianBlur stdDeviation="17" in="shadowOffsetOuter1" result="shadowBlurOuter1"></feGaussianBlur>
            <feColorMatrix values="0 0 0 0 0   0 0 0 0 0   0 0 0 0 0  0 0 0 0.21 0" in="shadowBlurOuter1" type="matrix" result="shadowMatrixOuter1"></feColorMatrix>
            <feMerge>
                <feMergeNode in="shadowMatrixOuter1"></feMergeNode>
                <feMergeNode in="SourceGraphic"></feMergeNode>
            </feMerge>
        </filter>
    </defs>
    <g id="Page-1" stroke="none" stroke-width="1" fill="none" fill-rule="evenodd" opacity="0.75">
        <g id="Waves">
            <g transform="translate(-2.000000, 110.000000)">

                <path d="M334.989808,319.846342 C387.296725,299.185727 454.202201,277.191279 517.098696,271.90092 C627.765237,262.592519 654.656173,277.072253 711.540843,284.312121 C758.852823,290.333645 816.896676,299.217003 892.218054,291.9203 C842.638877,319.165313 795.502485,340.481005 754.980047,353.607992 C681.547108,377.396127 576.0519,357.745059 540.886831,350.505192 C508.305105,343.79719 436.656344,322.882993 334.989808,319.846342 Z M718.768823,482.897296 L3.06812482,483.925602 L3.06812482,482.897296 L718.768823,482.897296 Z" id="Path-1-Copy" fill="#FFFFFF"></path>

                <path d="M2.0171009,380.272576 C2.86382002,380.749047 37.8687605,400.261229 92.015616,400.261229 C146.831753,400.261229 214.059092,370.267494 248.189894,355.787759 C262.922712,349.537473 294.228856,334.615097 333.956092,318.923308 C435.622628,321.95996 507.27139,342.874157 539.853115,349.582159 C575.018185,356.822026 680.513392,376.473094 753.946331,352.684959 C794.468769,339.557972 841.605161,318.24228 891.184339,290.997266 C906.424206,289.520915 922.37138,287.382186 939.080078,284.423354 C1038.36969,266.84082 1210.05796,223.401617 1284.52517,132.386143 C1358.99238,41.3706689 1391.05464,0 1441.73371,0 C1441.73371,27.925202 1442,483.335184 1442,483.335184 L2.03440939,483.335184 L2.03397339,481.974263 L1.00014264,481.974263 L2.00187848,381.794906 L2.00138793,380.263706 C2.00138793,380.263706 2.00663504,380.266687 2.0171009,380.272576 L2.03440939,378.541628 C2.03440939,378.541628 194.408023,318.554157 309.211632,318.554157 C317.645488,318.554157 325.895145,318.682538 333.956092,318.923308 Z" id="Path-1" fill="#FFFFFF" filter="url(#filter-1)"></path>

                <path d="M333.956643,319.957575 C325.895696,319.716805 317.646039,319.588423 309.212183,319.588423 C194.408575,319.588423 2.03496072,379.575894 2.03496072,379.575894 L1.00069396,483.00853 L2.03496072,483.00853 L2.03496072,484.036835 L717.735659,483.00853 L2.03496072,483.00853 Z M891.18489,292.031533 C931.450867,269.904359 973.328094,243.866229 1014.5821,215.127482 C1106.63184,151.002944 1186.27038,136.52321 1262.80612,130.31761 C1271.13519,129.642279 1279.77048,129.040443 1288.54671,128.504102 C1287.22016,130.126486 1285.87995,131.765239 1284.52572,133.42041 C1210.05852,224.435884 1038.37024,267.875086 939.080629,285.457621 C922.371932,288.416453 906.424758,290.555182 891.18489,292.031533 Z" id="Path-2-Copy" fill="#F3F3F3"></path>
            </g>
        </g>
    </g>
</svg>